  0
SECTION
  2
HEADER
  9
$MEASUREMENT
  70
  1
  9
$INSUNITS
  70
  4
  0
ENDSEC
  0
SECTION
  2
TABLES
  0
TABLE
  2
LTYPE
 70
     1
  0
LTYPE
  2
CONTINUOUS
 70
    64
  3
Ausgezogene Linie
 72
    65
 73
     0
 40
0.0
  0
ENDTAB
  0
TABLE
  2
LAYER
 70
     3
  0
LAYER
  2
Contour
 70
    64
 62
     7
  6
CONTINUOUS
  0
LAYER
  2
Engraving
 70
    64
 62
     7
  6
CONTINUOUS
  0
LAYER
  2
Reference_points
 70
    64
 62
     1
  6
CONTINUOUS
  0
ENDTAB
  0
TABLE
  2
STYLE
 70
     1
  0
STYLE
  2
TXT
 70
    64
 40
0.0
 41
1.0
 50
0.0
 71
     0
 42
3.500000
  3
TXT
  0
ENDTAB
  0
ENDSEC
  0
SECTION
  2
BLOCKS
  0
ENDSEC
  0
SECTION
  2
ENTITIES
  0
LINE
  8
Contour
 62
   7
 39
0.100
  6
CONTINUOUS
 10
9.82000
 20
128.40000
 30
 0
 11
9.82000
 21
0.00000
  0
LINE
  8
Contour
 62
   7
 39
0.100
  6
CONTINUOUS
 10
9.82000
 20
0.00000
 30
 0
 11
0.00000
 21
0.00000
  0
LINE
  8
Contour
 62
   7
 39
0.100
  6
CONTINUOUS
 10
0.00000
 20
0.00000
 30
 0
 11
0.00000
 21
128.40000
  0
LINE
  8
Contour
 62
   7
 39
0.100
  6
CONTINUOUS
 10
0.00000
 20
128.40000
 30
 0
 11
9.82000
 21
128.40000
  0
LINE
  8
Engraving
 62
   7
 39
0.400
  6
CONTINUOUS
 10
1.94473
 20
66.28200
 30
 0
 11
2.79907
 21
63.71900
  0
LINE
  8
Engraving
 62
   7
 39
0.400
  6
CONTINUOUS
 10
2.79907
 20
63.71900
 30
 0
 11
3.65340
 21
66.28200
  0
LINE
  8
Engraving
 62
   7
 39
0.400
  6
CONTINUOUS
 10
4.33773
 20
63.71900
 30
 0
 11
4.33773
 21
65.42767
  0
LINE
  8
Engraving
 62
   7
 39
0.400
  6
CONTINUOUS
 10
4.33773
 20
65.42767
 30
 0
 11
4.33773
 21
64.85811
  0
ARC
  8
Engraving
 62
   7
 39
0.400
  6
CONTINUOUS
 10
4.96704
 20
64.85813
 30
 0
 40
0.62931
 50
140.69073
 51
180.00162
  0
ARC
  8
Engraving
 62
   7
 39
0.400
  6
CONTINUOUS
 10
4.79338
 20
64.99927
 30
 0
 40
0.40553
 50
39.42406
 51
140.57594
  0
LINE
  8
Engraving
 62
   7
 39
0.400
  6
CONTINUOUS
 10
6.01703
 20
66.28200
 30
 0
 11
6.01703
 21
65.42767
  0
LINE
  8
Engraving
 62
   7
 39
0.400
  6
CONTINUOUS
 10
6.01703
 20
65.42767
 30
 0
 11
6.44420
 21
65.42767
  0
LINE
  8
Engraving
 62
   7
 39
0.400
  6
CONTINUOUS
 10
6.44420
 20
65.42767
 30
 0
 11
5.73226
 21
65.42767
  0
LINE
  8
Engraving
 62
   7
 39
0.400
  6
CONTINUOUS
 10
5.73226
 20
65.42767
 30
 0
 11
6.01703
 21
65.42767
  0
LINE
  8
Engraving
 62
   7
 39
0.400
  6
CONTINUOUS
 10
6.01703
 20
65.42767
 30
 0
 11
6.01703
 21
64.06073
  0
ARC
  8
Engraving
 62
   7
 39
0.400
  6
CONTINUOUS
 10
6.36435
 20
64.06064
 30
 0
 40
0.34731
 50
179.98432
 51
259.62682
  0
LINE
  8
Engraving
 62
   7
 39
0.400
  6
CONTINUOUS
 10
7.12673
 20
63.71900
 30
 0
 11
7.12673
 21
65.42767
  0
LINE
  8
Engraving
 62
   7
 39
0.400
  6
CONTINUOUS
 10
7.12673
 20
65.42767
 30
 0
 11
7.12673
 21
64.85811
  0
ARC
  8
Engraving
 62
   7
 39
0.400
  6
CONTINUOUS
 10
7.75604
 20
64.85813
 30
 0
 40
0.62931
 50
140.69073
 51
180.00162
  0
ARC
  8
Engraving
 62
   7
 39
0.400
  6
CONTINUOUS
 10
7.58238
 20
64.99927
 30
 0
 40
0.40553
 50
39.42406
 51
140.57594
  0
LINE
  8
Engraving
 62
   7
 39
0.200
  6
CONTINUOUS
 10
4.92000
 20
104.26633
 30
 0
 11
4.92000
 21
102.95478
  0
LINE
  8
Engraving
 62
   7
 39
0.200
  6
CONTINUOUS
 10
5.92889
 20
102.34933
 30
 0
 11
4.92000
 21
100.33156
  0
LINE
  8
Engraving
 62
   7
 39
0.200
  6
CONTINUOUS
 10
4.92000
 20
100.33156
 30
 0
 11
3.93633
 21
102.34933
  0
LINE
  8
Engraving
 62
   7
 39
0.200
  6
CONTINUOUS
 10
4.92000
 20
90.27633
 30
 0
 11
4.92000
 21
88.96478
  0
LINE
  8
Engraving
 62
   7
 39
0.200
  6
CONTINUOUS
 10
5.92889
 20
88.35933
 30
 0
 11
4.92000
 21
86.34156
  0
LINE
  8
Engraving
 62
   7
 39
0.200
  6
CONTINUOUS
 10
4.92000
 20
86.34156
 30
 0
 11
3.93633
 21
88.35933
  0
LINE
  8
Engraving
 62
   7
 39
0.200
  6
CONTINUOUS
 10
4.92000
 20
43.61633
 30
 0
 11
4.92000
 21
42.30478
  0
LINE
  8
Engraving
 62
   7
 39
0.200
  6
CONTINUOUS
 10
5.92889
 20
41.69933
 30
 0
 11
4.92000
 21
39.68156
  0
LINE
  8
Engraving
 62
   7
 39
0.200
  6
CONTINUOUS
 10
4.92000
 20
39.68156
 30
 0
 11
3.93633
 21
41.69933
  0
LINE
  8
Engraving
 62
   7
 39
0.200
  6
CONTINUOUS
 10
4.92000
 20
29.01633
 30
 0
 11
4.92000
 21
27.70478
  0
LINE
  8
Engraving
 62
   7
 39
0.200
  6
CONTINUOUS
 10
5.92889
 20
27.09933
 30
 0
 11
4.92000
 21
25.08156
  0
LINE
  8
Engraving
 62
   7
 39
0.200
  6
CONTINUOUS
 10
4.92000
 20
25.08156
 30
 0
 11
3.93633
 21
27.09933
  0
LINE
  8
Engraving
 62
   7
 39
0.200
  6
CONTINUOUS
 10
1.62393
 20
4.13536
 30
 0
 11
2.05156
 21
3.21850
  0
LINE
  8
Engraving
 62
   7
 39
0.200
  6
CONTINUOUS
 10
2.05156
 20
3.21850
 30
 0
 11
2.09169
 21
3.12944
  0
LINE
  8
Engraving
 62
   7
 39
0.200
  6
CONTINUOUS
 10
2.09169
 20
3.12944
 30
 0
 11
2.09759
 21
3.11665
  0
LINE
  8
Engraving
 62
   7
 39
0.200
  6
CONTINUOUS
 10
2.09759
 20
3.11665
 30
 0
 11
2.09759
 21
3.11665
  0
LINE
  8
Engraving
 62
   7
 39
0.200
  6
CONTINUOUS
 10
2.09759
 20
3.11665
 30
 0
 11
2.19100
 21
2.93791
  0
LINE
  8
Engraving
 62
   7
 39
0.200
  6
CONTINUOUS
 10
2.19100
 20
2.93791
 30
 0
 11
2.21158
 21
2.90629
  0
LINE
  8
Engraving
 62
   7
 39
0.200
  6
CONTINUOUS
 10
2.21158
 20
2.90629
 30
 0
 11
2.21289
 21
2.80464
  0
LINE
  8
Engraving
 62
   7
 39
0.200
  6
CONTINUOUS
 10
2.21289
 20
2.80464
 30
 0
 11
2.21289
 21
2.58497
  0
LINE
  8
Engraving
 62
   7
 39
0.200
  6
CONTINUOUS
 10
2.21289
 20
2.58497
 30
 0
 11
2.21289
 21
1.87186
  0
LINE
  8
Engraving
 62
   7
 39
0.200
  6
CONTINUOUS
 10
2.80185
 20
4.13536
 30
 0
 11
2.38901
 21
3.25670
  0
LINE
  8
Engraving
 62
   7
 39
0.200
  6
CONTINUOUS
 10
2.38901
 20
3.25670
 30
 0
 11
2.27418
 21
3.01157
  0
LINE
  8
Engraving
 62
   7
 39
0.200
  6
CONTINUOUS
 10
2.27418
 20
3.01157
 30
 0
 11
2.21043
 21
2.90868
  0
LINE
  8
Engraving
 62
   7
 39
0.200
  6
CONTINUOUS
 10
3.23085
 20
1.87186
 30
 0
 11
3.23085
 21
3.59416
  0
LINE
  8
Engraving
 62
   7
 39
0.200
  6
CONTINUOUS
 10
3.23085
 20
3.59416
 30
 0
 11
3.23085
 21
4.00802
  0
LINE
  8
Engraving
 62
   7
 39
0.200
  6
CONTINUOUS
 10
3.23085
 20
4.00802
 30
 0
 11
3.22887
 21
4.05417
  0
LINE
  8
Engraving
 62
   7
 39
0.200
  6
CONTINUOUS
 10
3.22887
 20
4.05417
 30
 0
 11
3.22880
 21
4.06215
  0
LINE
  8
Engraving
 62
   7
 39
0.200
  6
CONTINUOUS
 10
3.22880
 20
4.06215
 30
 0
 11
3.22880
 21
4.06215
  0
LINE
  8
Engraving
 62
   7
 39
0.200
  6
CONTINUOUS
 10
3.22880
 20
4.06215
 30
 0
 11
3.23740
 21
4.11250
  0
LINE
  8
Engraving
 62
   7
 39
0.200
  6
CONTINUOUS
 10
3.23740
 20
4.11250
 30
 0
 11
3.24587
 21
4.12183
  0
LINE
  8
Engraving
 62
   7
 39
0.200
  6
CONTINUOUS
 10
3.24587
 20
4.12183
 30
 0
 11
3.24587
 21
4.12183
  0
LINE
  8
Engraving
 62
   7
 39
0.200
  6
CONTINUOUS
 10
3.24587
 20
4.12183
 30
 0
 11
3.25944
 21
4.12469
  0
LINE
  8
Engraving
 62
   7
 39
0.200
  6
CONTINUOUS
 10
3.25944
 20
4.12469
 30
 0
 11
3.27847
 21
4.11813
  0
LINE
  8
Engraving
 62
   7
 39
0.200
  6
CONTINUOUS
 10
3.27847
 20
4.11813
 30
 0
 11
3.27893
 21
4.11788
  0
LINE
  8
Engraving
 62
   7
 39
0.200
  6
CONTINUOUS
 10
3.27893
 20
4.11788
 30
 0
 11
3.27939
 21
4.11762
  0
LINE
  8
Engraving
 62
   7
 39
0.200
  6
CONTINUOUS
 10
3.27939
 20
4.11762
 30
 0
 11
3.27939
 21
4.11762
  0
LINE
  8
Engraving
 62
   7
 39
0.200
  6
CONTINUOUS
 10
3.27939
 20
4.11762
 30
 0
 11
3.29528
 21
4.09960
  0
LINE
  8
Engraving
 62
   7
 39
0.200
  6
CONTINUOUS
 10
3.29528
 20
4.09960
 30
 0
 11
3.30511
 21
4.07359
  0
LINE
  8
Engraving
 62
   7
 39
0.200
  6
CONTINUOUS
 10
3.30511
 20
4.07359
 30
 0
 11
3.30511
 21
4.07359
  0
LINE
  8
Engraving
 62
   7
 39
0.200
  6
CONTINUOUS
 10
3.30511
 20
4.07359
 30
 0
 11
3.31039
 21
4.05209
  0
LINE
  8
Engraving
 62
   7
 39
0.200
  6
CONTINUOUS
 10
3.31039
 20
4.05209
 30
 0
 11
3.31500
 21
4.03349
  0
LINE
  8
Engraving
 62
   7
 39
0.200
  6
CONTINUOUS
 10
3.31500
 20
4.03349
 30
 0
 11
3.38504
 21
3.80109
  0
LINE
  8
Engraving
 62
   7
 39
0.200
  6
CONTINUOUS
 10
3.38504
 20
3.80109
 30
 0
 11
3.66391
 21
2.87468
  0
LINE
  8
Engraving
 62
   7
 39
0.200
  6
CONTINUOUS
 10
3.66391
 20
2.87468
 30
 0
 11
3.74931
 21
2.59134
  0
LINE
  8
Engraving
 62
   7
 39
0.200
  6
CONTINUOUS
 10
3.74931
 20
2.59134
 30
 0
 11
3.75694
 21
2.55976
  0
LINE
  8
Engraving
 62
   7
 39
0.200
  6
CONTINUOUS
 10
3.75694
 20
2.55976
 30
 0
 11
3.75818
 21
2.55491
  0
LINE
  8
Engraving
 62
   7
 39
0.200
  6
CONTINUOUS
 10
3.75818
 20
2.55491
 30
 0
 11
3.75818
 21
2.55491
  0
LINE
  8
Engraving
 62
   7
 39
0.200
  6
CONTINUOUS
 10
3.75818
 20
2.55491
 30
 0
 11
3.77375
 21
2.51898
  0
LINE
  8
Engraving
 62
   7
 39
0.200
  6
CONTINUOUS
 10
3.77375
 20
2.51898
 30
 0
 11
3.78215
 21
2.51100
  0
LINE
  8
Engraving
 62
   7
 39
0.200
  6
CONTINUOUS
 10
3.78215
 20
2.51100
 30
 0
 11
3.78215
 21
2.51100
  0
LINE
  8
Engraving
 62
   7
 39
0.200
  6
CONTINUOUS
 10
3.78215
 20
2.51100
 30
 0
 11
3.79059
 21
2.50691
  0
LINE
  8
Engraving
 62
   7
 39
0.200
  6
CONTINUOUS
 10
3.79059
 20
2.50691
 30
 0
 11
3.80070
 21
2.50540
  0
LINE
  8
Engraving
 62
   7
 39
0.200
  6
CONTINUOUS
 10
3.80070
 20
2.50540
 30
 0
 11
3.82095
 21
2.51065
  0
LINE
  8
Engraving
 62
   7
 39
0.200
  6
CONTINUOUS
 10
3.82095
 20
2.51065
 30
 0
 11
3.82413
 21
2.51286
  0
LINE
  8
Engraving
 62
   7
 39
0.200
  6
CONTINUOUS
 10
3.82413
 20
2.51286
 30
 0
 11
3.82413
 21
2.51286
  0
LINE
  8
Engraving
 62
   7
 39
0.200
  6
CONTINUOUS
 10
3.82413
 20
2.51286
 30
 0
 11
3.84349
 21
2.54516
  0
LINE
  8
Engraving
 62
   7
 39
0.200
  6
CONTINUOUS
 10
3.84349
 20
2.54516
 30
 0
 11
3.84729
 21
2.55864
  0
LINE
  8
Engraving
 62
   7
 39
0.200
  6
CONTINUOUS
 10
3.84729
 20
2.55864
 30
 0
 11
3.84729
 21
2.55864
  0
LINE
  8
Engraving
 62
   7
 39
0.200
  6
CONTINUOUS
 10
3.84729
 20
2.55864
 30
 0
 11
3.85129
 21
2.57559
  0
LINE
  8
Engraving
 62
   7
 39
0.200
  6
CONTINUOUS
 10
3.85129
 20
2.57559
 30
 0
 11
3.85528
 21
2.59134
  0
LINE
  8
Engraving
 62
   7
 39
0.200
  6
CONTINUOUS
 10
3.85528
 20
2.59134
 30
 0
 11
3.93969
 21
2.87149
  0
LINE
  8
Engraving
 62
   7
 39
0.200
  6
CONTINUOUS
 10
3.93969
 20
2.87149
 30
 0
 11
4.21956
 21
3.80109
  0
LINE
  8
Engraving
 62
   7
 39
0.200
  6
CONTINUOUS
 10
4.21956
 20
3.80109
 30
 0
 11
4.29086
 21
4.03667
  0
LINE
  8
Engraving
 62
   7
 39
0.200
  6
CONTINUOUS
 10
4.29086
 20
4.03667
 30
 0
 11
4.29932
 21
4.07078
  0
LINE
  8
Engraving
 62
   7
 39
0.200
  6
CONTINUOUS
 10
4.29932
 20
4.07078
 30
 0
 11
4.30043
 21
4.07492
  0
LINE
  8
Engraving
 62
   7
 39
0.200
  6
CONTINUOUS
 10
4.30043
 20
4.07492
 30
 0
 11
4.30043
 21
4.07492
  0
LINE
  8
Engraving
 62
   7
 39
0.200
  6
CONTINUOUS
 10
4.30043
 20
4.07492
 30
 0
 11
4.31853
 21
4.11223
  0
LINE
  8
Engraving
 62
   7
 39
0.200
  6
CONTINUOUS
 10
4.31853
 20
4.11223
 30
 0
 11
4.32425
 21
4.11695
  0
LINE
  8
Engraving
 62
   7
 39
0.200
  6
CONTINUOUS
 10
4.32425
 20
4.11695
 30
 0
 11
4.32425
 21
4.11695
  0
LINE
  8
Engraving
 62
   7
 39
0.200
  6
CONTINUOUS
 10
4.32425
 20
4.11695
 30
 0
 11
4.32522
 21
4.11756
  0
LINE
  8
Engraving
 62
   7
 39
0.200
  6
CONTINUOUS
 10
4.32522
 20
4.11756
 30
 0
 11
4.32622
 21
4.11813
  0
LINE
  8
Engraving
 62
   7
 39
0.200
  6
CONTINUOUS
 10
4.32622
 20
4.11813
 30
 0
 11
4.35622
 21
4.12419
  0
LINE
  8
Engraving
 62
   7
 39
0.200
  6
CONTINUOUS
 10
4.35622
 20
4.12419
 30
 0
 11
4.36039
 21
4.12224
  0
LINE
  8
Engraving
 62
   7
 39
0.200
  6
CONTINUOUS
 10
4.36039
 20
4.12224
 30
 0
 11
4.36039
 21
4.12224
  0
LINE
  8
Engraving
 62
   7
 39
0.200
  6
CONTINUOUS
 10
4.36039
 20
4.12224
 30
 0
 11
4.37748
 21
4.08147
  0
LINE
  8
Engraving
 62
   7
 39
0.200
  6
CONTINUOUS
 10
4.37748
 20
4.08147
 30
 0
 11
4.37851
 21
4.06259
  0
LINE
  8
Engraving
 62
   7
 39
0.200
  6
CONTINUOUS
 10
4.37851
 20
4.06259
 30
 0
 11
4.37851
 21
4.06259
  0
LINE
  8
Engraving
 62
   7
 39
0.200
  6
CONTINUOUS
 10
4.37851
 20
4.06259
 30
 0
 11
4.37785
 21
4.03158
  0
LINE
  8
Engraving
 62
   7
 39
0.200
  6
CONTINUOUS
 10
4.37785
 20
4.03158
 30
 0
 11
4.37693
 21
4.00802
  0
LINE
  8
Engraving
 62
   7
 39
0.200
  6
CONTINUOUS
 10
4.37693
 20
4.00802
 30
 0
 11
4.37693
 21
3.59416
  0
LINE
  8
Engraving
 62
   7
 39
0.200
  6
CONTINUOUS
 10
4.37693
 20
3.59416
 30
 0
 11
4.37693
 21
1.87186
  0
CIRCLE
  8
Contour
 62
   7
 39
0.100
  6
CONTINUOUS
 10
7.50000
 20
125.50000
 30
 0
 40
1.50000
  0
CIRCLE
  8
Contour
 62
   7
 39
0.100
  6
CONTINUOUS
 10
7.50000
 20
3.00000
 30
 0
 40
1.50000
  0
CIRCLE
  8
Contour
 62
   7
 39
0.100
  6
CONTINUOUS
 10
4.92000
 20
108.97000
 30
 0
 40
3.00000
  0
CIRCLE
  8
Contour
 62
   7
 39
0.100
  6
CONTINUOUS
 10
4.92000
 20
81.02000
 30
 0
 40
3.00000
  0
CIRCLE
  8
Contour
 62
   7
 39
0.100
  6
CONTINUOUS
 10
4.92000
 20
48.00000
 30
 0
 40
3.00000
  0
CIRCLE
  8
Contour
 62
   7
 39
0.100
  6
CONTINUOUS
 10
4.92000
 20
18.79000
 30
 0
 40
3.00000
  0
CIRCLE
  8
Contour
 62
   7
 39
0.100
  6
CONTINUOUS
 10
4.92000
 20
95.63000
 30
 0
 40
3.25000
  0
CIRCLE
  8
Contour
 62
   7
 39
0.100
  6
CONTINUOUS
 10
4.92000
 20
35.30000
 30
 0
 40
3.25000
  0
ENDSEC
  0
EOF
